<svg id="Layer_1" data-name="Layer 1" xmlns="http://www.w3.org/2000/svg" viewBox="0 0 838.39 222.4"><path d="M87.5,627.32a67.39,67.39,0,0,1-26.2-25.5,74.87,74.87,0,0,1,0-73,67.32,67.32,0,0,1,26.3-25.5,77,77,0,0,1,37.6-9.2,78,78,0,0,1,28.8,5.2,59.79,59.79,0,0,1,22.4,15.2l-9.4,9.4q-16.4-16.59-41.4-16.6a60.94,60.94,0,0,0-30.2,7.6,55.65,55.65,0,0,0-21.3,20.8,60.74,60.74,0,0,0,0,59.2,55.58,55.58,0,0,0,21.3,20.8,60.83,60.83,0,0,0,30.2,7.6q25.2,0,41.4-16.8l9.4,9.4a60.41,60.41,0,0,1-22.5,15.3,77.21,77.21,0,0,1-28.9,5.3Q104.21,636.52,87.5,627.32Z" transform="translate(-51.8 -465.8)" style="fill:#ddd"/><path d="M99.55,610.19A48.61,48.61,0,0,1,80.66,591.8a53.94,53.94,0,0,1,0-52.65,48.39,48.39,0,0,1,19-18.39,55.47,55.47,0,0,1,27.12-6.64,56.16,56.16,0,0,1,20.77,3.75,43.18,43.18,0,0,1,16.16,11l-6.78,6.78q-11.83-12-29.86-12a43.93,43.93,0,0,0-21.78,5.48,40.11,40.11,0,0,0-15.36,15,43.77,43.77,0,0,0,0,42.7,40,40,0,0,0,15.36,15A43.82,43.82,0,0,0,127,607.3q18.18,0,29.86-12.11l6.78,6.77a43.78,43.78,0,0,1-16.23,11,55.77,55.77,0,0,1-20.84,3.82A55.13,55.13,0,0,1,99.55,610.19Z" transform="translate(-51.8 -465.8)" style="fill:#5757ff"/><path d="M307,622.52v12.8H208v-140h96v12.8H222.8v49.8h72.4v12.6H222.8v52Z" transform="translate(-51.8 -465.8)" style="fill:#ddd"/><path d="M437.4,635.32l-32-45a101.37,101.37,0,0,1-11.2.6H356.6v44.4H341.8v-140h52.4q26.81,0,42,12.8t15.2,35.2q0,16.41-8.3,27.7t-23.7,16.3l34.2,48Zm-11.8-66.2q11-9.2,11-25.8,0-17-11-26.1t-31.8-9.1H356.6v70.2h37.2Q414.61,578.32,425.6,569.12Z" transform="translate(-51.8 -465.8)" style="fill:#ddd"/><path d="M511.6,508.12H462.4v-12.8H575.6v12.8H526.4v127.2H511.6Z" transform="translate(-51.8 -465.8)" style="fill:#ddd"/><path d="M674.4,508.12v55h72.4v12.8H674.4v59.4H659.6v-140h96v12.8Z" transform="translate(-51.8 -465.8)" style="fill:#ddd"/><path d="M834.2,586.92v48.4H819.6v-48.4l-56-91.6h15.8l48,78.6,48-78.6h14.8Z" transform="translate(-51.8 -465.8)" style="fill:#ddd"/><text transform="translate(530.6 170)" style="font-size:200px;fill:#5757ff;font-family:Montserrat-Regular, Montserrat">i</text></svg>